<?xml version="1.0"?>
<svg xmlns="http://www.w3.org/2000/svg" height="512px" viewBox="0 0 512 512" width="512px" class=""><g><path d="m512 256c0 141.386719-114.613281 256-256 256s-256-114.613281-256-256 114.613281-256 256-256 256 114.613281 256 256zm0 0" fill="#ffa300" data-original="#FFA300" class="" style="fill:#E5E5E6" data-old_color="#FDF5F5"/><path d="m512 256c0-17.503906-1.761719-34.59375-5.109375-51.109375l-123.390625-123.390625-255 349 76.390625 76.390625c16.515625 3.347656 33.605469 5.109375 51.109375 5.109375 141.386719 0 256-114.613281 256-256zm0 0" fill="#fa5d0f" data-original="#FA5D0F" class="active-path" style="fill:#AEACA5" data-old_color="#ACA8A8"/><path d="m383.5 430.5h-255v-349h255zm0 0" fill="#fff" data-original="#FFF" class=""/><path d="m255.808594 81.5h127.691406v349h-127.691406zm0 0" fill="#e9edf5" data-original="#E9EDF5" class=""/><g fill="#a7ddfa"><path d="m360 231h-208v-20h208zm0 0" data-original="#000000" class="" style="fill:#B8BABB" data-old_color="#ECF0F9"/><path d="m360 186h-208v-20h208zm0 0" data-original="#000000" class="" style="fill:#B8BABB" data-old_color="#ECF0F9"/><path d="m360 141h-208v-20h208zm0 0" data-original="#000000" class="" style="fill:#B8BABB" data-old_color="#ECF0F9"/></g><path d="m255.808594 211h104.191406v20h-104.191406zm0 0" fill="#99d3f2" data-original="#99D3F2" class="" style="fill:#8F9091" data-old_color="#99D3F2"/><path d="m255.808594 166h104.191406v20h-104.191406zm0 0" fill="#99d3f2" data-original="#99D3F2" class="" style="fill:#8F9091" data-old_color="#99D3F2"/><path d="m255.808594 121h104.191406v20h-104.191406zm0 0" fill="#99d3f2" data-original="#99D3F2" class="" style="fill:#8F9091" data-old_color="#99D3F2"/><path d="m294 452-38-20-38 20v-87.667969h76zm0 0" fill="#2864f0" data-original="#2864F0" class="" style="fill:#ECF0F9" data-old_color="#8F9091"/><path d="m256 432 38 20v-87.667969h-38.191406zm0 0" fill="#27488f" data-original="#27488F" class="" style="fill:#B8BABB" data-old_color="#BBBBBB"/><path d="m172 324 23.113281-19.785156-7.070312-29.597656 30.34375-2.402344 11.652343-28.121094 25.960938 15.90625 25.960938-15.90625 11.652343 28.121094 30.34375 2.402344-7.070312 29.597656 23.113281 19.785156-23.113281 19.785156 7.070312 29.597656-30.34375 2.402344-11.652343 28.121094-25.960938-15.90625-25.960938 15.90625-11.652343-28.121094-30.34375-2.402344 7.070312-29.597656zm0 0" fill="#fa5d0f" data-original="#FA5D0F" class="active-path" style="fill:#AEACA5" data-old_color="#ACA8A8"/><path d="m340 324-23.113281-19.785156 7.070312-29.597656-30.34375-2.402344-11.652343-28.121094-25.960938 15.90625-.191406-.117188v128.234376l.191406-.117188 25.960938 15.90625 11.652343-28.121094 30.34375-2.402344-7.070312-29.597656zm0 0" fill="#f24500" data-original="#F24500" class="" style="fill:#CCCCCC" data-old_color="#E5E5E6"/><path d="m305 324c0 27.0625-21.9375 49-49 49s-49-21.9375-49-49 21.9375-49 49-49 49 21.9375 49 49zm0 0" fill="#ffa300" data-original="#FFA300" class="" style="fill:#E5E5E6" data-old_color="#FDF5F5"/><path d="m256 275c-.0625 0-.128906.003906-.191406.003906v97.992188c.066406 0 .128906.003906.191406.003906 27.0625 0 49-21.9375 49-49s-21.9375-49-49-49zm0 0" fill="#ff9700" data-original="#FF9700" class="" style="fill:#B8BABB" data-old_color="#FF9700"/></g> </svg>
