<svg height="512pt" viewBox="0 0 512 512" width="512pt" xmlns="http://www.w3.org/2000/svg"><path d="m512 256c0 141.386719-114.613281 256-256 256s-256-114.613281-256-256 114.613281-256 256-256 256 114.613281 256 256zm0 0" fill="#ffa300"/><path d="m512 256c0-17.503906-1.761719-34.59375-5.109375-51.109375l-123.390625-123.390625-255 349 76.390625 76.390625c16.515625 3.347656 33.605469 5.109375 51.109375 5.109375 141.386719 0 256-114.613281 256-256zm0 0" fill="#fa5d0f"/><path d="m383.5 430.5h-255v-349h255zm0 0" fill="#fff"/><path d="m255.808594 81.5h127.691406v349h-127.691406zm0 0" fill="#e9edf5"/><g fill="#a7ddfa"><path d="m360 231h-208v-20h208zm0 0"/><path d="m360 186h-208v-20h208zm0 0"/><path d="m360 141h-208v-20h208zm0 0"/></g><path d="m255.808594 211h104.191406v20h-104.191406zm0 0" fill="#99d3f2"/><path d="m255.808594 166h104.191406v20h-104.191406zm0 0" fill="#99d3f2"/><path d="m255.808594 121h104.191406v20h-104.191406zm0 0" fill="#99d3f2"/><path d="m294 452-38-20-38 20v-87.667969h76zm0 0" fill="#2864f0"/><path d="m256 432 38 20v-87.667969h-38.191406zm0 0" fill="#27488f"/><path d="m172 324 23.113281-19.785156-7.070312-29.597656 30.34375-2.402344 11.652343-28.121094 25.960938 15.90625 25.960938-15.90625 11.652343 28.121094 30.34375 2.402344-7.070312 29.597656 23.113281 19.785156-23.113281 19.785156 7.070312 29.597656-30.34375 2.402344-11.652343 28.121094-25.960938-15.90625-25.960938 15.90625-11.652343-28.121094-30.34375-2.402344 7.070312-29.597656zm0 0" fill="#fa5d0f"/><path d="m340 324-23.113281-19.785156 7.070312-29.597656-30.34375-2.402344-11.652343-28.121094-25.960938 15.90625-.191406-.117188v128.234376l.191406-.117188 25.960938 15.90625 11.652343-28.121094 30.34375-2.402344-7.070312-29.597656zm0 0" fill="#f24500"/><path d="m305 324c0 27.0625-21.9375 49-49 49s-49-21.9375-49-49 21.9375-49 49-49 49 21.9375 49 49zm0 0" fill="#ffa300"/><path d="m256 275c-.0625 0-.128906.003906-.191406.003906v97.992188c.066406 0 .128906.003906.191406.003906 27.0625 0 49-21.9375 49-49s-21.9375-49-49-49zm0 0" fill="#ff9700"/></svg>