<svg xmlns="http://www.w3.org/2000/svg" viewBox="0 0 35.989 35.989">
  <defs>
    <style>
      .cls-1 {
        fill: #d9534f;
      }
    </style>
  </defs>
  <g id="Group_106" data-name="Group 106" transform="translate(-166 -271.011)">
    <g id="Group_105" data-name="Group 105" transform="translate(166 271.011)">
      <path id="Path_322" data-name="Path 322" class="cls-1" d="M17.995,0A17.995,17.995,0,1,0,35.989,17.995,18.047,18.047,0,0,0,17.995,0Zm0,33.535A15.541,15.541,0,1,1,33.535,17.995,15.534,15.534,0,0,1,17.995,33.535Z"/>
      <path id="Path_323" data-name="Path 323" class="cls-1" d="M26.987,13.8a1.186,1.186,0,0,0-1.718,0l-4.662,4.826-5.071-4.908a1.215,1.215,0,1,0-1.718,1.718l4.989,4.826L13.9,25.251a1.186,1.186,0,0,0,0,1.718,1.313,1.313,0,0,0,.9.409,1.05,1.05,0,0,0,.818-.327l5.071-4.908,4.662,4.826a1.313,1.313,0,0,0,.9.409,1.05,1.05,0,0,0,.818-.327,1.186,1.186,0,0,0,0-1.718l-4.662-4.908,4.662-4.908A1.189,1.189,0,0,0,26.987,13.8Z" transform="translate(-2.449 -2.431)"/>
    </g>
  </g>
</svg>
