<?xml version="1.0" encoding="utf-8"?>
<!-- Generator: Adobe Illustrator 21.0.1, SVG Export Plug-In . SVG Version: 6.00 Build 0)  -->
<svg version="1.1" id="Layer_1" xmlns="http://www.w3.org/2000/svg" xmlns:xlink="http://www.w3.org/1999/xlink" x="0px" y="0px"
	 viewBox="0 0 30 30" style="enable-background:new 0 0 30 30;" xml:space="preserve">
<style type="text/css">
	.st0{clip-path:url(#SVGID_2_);}
	.st1{fill:#FFCC4D;}
	.st2{fill:#231F20;}
</style>
<g transform="matrix(1.25 0 0 -1.25 0 45)">
	<g>
		<defs>
			<rect id="SVGID_1_" x="-3" y="9" width="30" height="30"/>
		</defs>
		<clipPath id="SVGID_2_">
			<use xlink:href="#SVGID_1_"  style="overflow:visible;"/>
		</clipPath>
		<g class="st0">
			<path class="st1" d="M1.8,12.7c-1.2,0-1.8,0.9-1.2,2l10.4,20c0.6,1.1,1.5,1.1,2.1,0l10.4-20c0.6-1.1,0-2-1.2-2H1.8z"/>
			<path class="st2" d="M10.5,28.9c0,0.9,0.6,1.4,1.5,1.4c0.8,0,1.5-0.6,1.5-1.4v-8c0-0.8-0.7-1.4-1.5-1.4c-0.8,0-1.5,0.5-1.5,1.4
				V28.9z M10.4,16.7c0,0.9,0.7,1.6,1.6,1.6c0.9,0,1.6-0.7,1.6-1.6c0-0.9-0.7-1.6-1.6-1.6C11.1,15.1,10.4,15.8,10.4,16.7"/>
		</g>
	</g>
</g>
</svg>
